<?xml version="1.0" standalone="no"?>
<!DOCTYPE svg PUBLIC "-//W3C//DTD SVG 20010904//EN"
 "http://www.w3.org/TR/2001/REC-SVG-20010904/DTD/svg10.dtd">
<svg version="1.0" xmlns="http://www.w3.org/2000/svg"
 width="512.000000pt" height="512.000000pt" viewBox="0 0 512.000000 512.000000"
 preserveAspectRatio="xMidYMid meet">
<metadata>
Created by potrace 1.11, written by Peter Selinger 2001-2013
</metadata>
<g transform="translate(0.000000,512.000000) scale(0.100000,-0.100000)"
fill="#000000" stroke="none">
<path d="M0 2560 l0 -2560 2560 0 2560 0 0 2560 0 2560 -2560 0 -2560 0 0
-2560z m2783 -72 l-778 -778 -221 -74 -222 -74 74 222 74 221 640 640 640 640
-58 58 -57 57 -155 -155 -155 -155 -35 35 -35 35 193 192 192 193 88 -88 c48
-48 92 -87 97 -87 6 0 53 43 105 95 l95 95 147 -147 148 -148 -777 -777z"/>
<path d="M3195 3350 l-60 -60 78 -78 77 -77 62 63 63 62 -75 75 c-41 41 -77
75 -80 75 -3 0 -32 -27 -65 -60z"/>
<path d="M2445 2600 l-610 -610 78 -77 77 -78 612 612 613 613 -75 75 c-41 41
-77 75 -80 75 -3 0 -280 -274 -615 -610z"/>
<path d="M1755 1819 c-15 -44 -25 -83 -22 -86 3 -3 42 7 87 22 l82 27 -58 59
c-32 33 -59 59 -60 59 -1 0 -14 -36 -29 -81z"/>
</g>
</svg>
