<?xml version="1.0" standalone="no"?>
<!DOCTYPE svg PUBLIC "-//W3C//DTD SVG 20010904//EN"
 "http://www.w3.org/TR/2001/REC-SVG-20010904/DTD/svg10.dtd">
<svg version="1.0" xmlns="http://www.w3.org/2000/svg"
 width="144.000000pt" height="144.000000pt" viewBox="0 0 144.000000 144.000000"
 preserveAspectRatio="xMidYMid meet">
<metadata>
Created by potrace 1.11, written by Peter Selinger 2001-2013
</metadata>
<g transform="translate(0.000000,144.000000) scale(0.100000,-0.100000)"
fill="#000000" stroke="none">
<path d="M353 1373 c9 -2 23 -2 30 0 6 3 -1 5 -18 5 -16 0 -22 -2 -12 -5z"/>
<path d="M530 1371 l85 -6 0 -50 c0 -36 4 -49 13 -47 8 1 11 -2 7 -8 -3 -6
-10 -8 -15 -5 -5 3 -7 -3 -6 -12 3 -16 -2 -18 -35 -15 l-39 4 0 -156 0 -156
45 0 c25 0 45 5 45 10 0 6 -3 10 -7 10 -5 0 -8 34 -8 75 l-1 75 37 -58 c20
-31 35 -60 32 -64 -2 -5 2 -8 9 -8 8 0 6 -5 -5 -11 -17 -10 -15 -29 4 -29 6 0
7 5 4 10 -9 14 8 13 23 -2 18 -18 15 -28 -9 -28 -11 0 -17 -4 -14 -10 3 -5 1
-10 -5 -10 -7 0 -10 7 -7 15 4 8 2 17 -3 20 -6 4 -10 -4 -10 -15 0 -16 -4 -20
-15 -16 -14 5 -15 -11 -13 -122 3 -124 4 -127 25 -124 12 2 25 -2 29 -9 4 -8
3 -9 -4 -5 -7 4 -12 3 -12 -2 0 -17 13 -22 27 -10 11 8 12 7 7 -6 -3 -9 -15
-16 -25 -16 -10 0 -19 -5 -19 -11 0 -5 5 -7 12 -3 7 4 8 3 4 -4 -9 -15 -46
-16 -46 -1 0 5 4 8 9 4 5 -3 13 4 16 16 8 24 -14 46 -26 27 -4 -6 -14 -8 -23
-5 -9 4 -16 2 -16 -3 0 -9 15 -14 33 -11 5 1 6 -3 2 -8 -3 -6 -13 -7 -21 -4
-14 5 -15 3 -5 -16 7 -12 10 -30 8 -39 -3 -15 -5 -14 -12 3 -4 11 -14 35 -21
53 -8 19 -19 32 -26 29 -14 -4 -16 -27 -5 -70 6 -21 4 -29 -10 -34 -58 -20
-81 -83 -43 -118 17 -15 23 -16 51 -5 17 7 38 24 46 37 l16 23 35 -20 c19 -12
41 -19 49 -16 8 3 11 1 8 -4 -3 -6 -19 -10 -36 -10 l-29 0 0 -159 0 -160 40
-4 40 -4 -42 1 -43 1 -3 122 c-2 76 -7 123 -13 123 -7 0 -9 -44 -7 -125 l3
-125 -215 -3 c-118 -1 54 -3 383 -5 l597 -2 0 660 0 660 -467 -2 c-258 -1
-430 -4 -383 -7z m107 -73 c-2 -13 -4 -3 -4 22 0 25 2 35 4 23 2 -13 2 -33 0
-45z m8 -106 c-8 -8 -25 10 -19 20 4 6 9 5 15 -3 4 -7 6 -15 4 -17z m55 -14
c-15 -13 -18 -19 -8 -15 10 3 20 2 23 -3 7 -11 -28 -14 -38 -4 -9 9 4 35 14
28 5 -3 9 0 9 5 0 6 6 11 13 11 6 -1 1 -10 -13 -22z m-15 -49 c-3 -4 3 -14 15
-21 11 -7 20 -22 20 -33 -1 -20 -1 -20 -16 0 -9 11 -22 32 -30 47 -13 24 -12
27 1 22 8 -3 12 -10 10 -15z m-31 -594 c-4 -8 -10 -15 -15 -15 -5 0 -9 7 -9
15 0 8 7 15 15 15 9 0 12 -6 9 -15z m3 -31 c-3 -4 1 -13 9 -21 20 -20 11 -28
-15 -14 -20 11 -19 41 2 41 6 0 8 -3 4 -6z m-70 -47 c-19 -29 -41 -41 -61 -34
-40 15 12 71 56 59 17 -4 17 -7 5 -25z m130 -5 c8 -5 4 -11 -11 -18 -20 -9
-23 -8 -18 8 5 20 11 22 29 10z"/>
<path d="M230 1075 l0 -155 35 0 35 0 0 65 0 65 60 0 60 0 0 -65 0 -65 30 0
30 0 0 155 0 155 -30 0 c-32 0 -33 -1 -30 -72 l1 -48 -60 0 -61 0 0 60 0 60
-35 0 -35 0 0 -155z"/>
<path d="M644 987 c3 -26 1 -35 -6 -31 -8 5 -9 1 -5 -10 4 -10 2 -26 -3 -36
-8 -15 -7 -19 9 -17 19 1 38 37 20 37 -5 0 -9 5 -9 11 0 5 6 7 13 3 6 -4 9 -4
5 1 -4 4 -2 15 5 23 10 13 9 15 -7 9 -13 -5 -17 -3 -13 6 3 8 1 20 -5 28 -7
10 -8 3 -4 -24z"/>
<path d="M605 769 c0 -77 3 -139 8 -139 4 0 10 0 13 0 12 0 3 243 -9 260 -10
14 -12 -11 -12 -121z"/>
<path d="M177 453 c-57 -30 -74 -102 -21 -89 19 5 24 2 24 -13 0 -29 28 -88
45 -94 20 -8 20 26 0 47 -21 21 -19 28 20 66 72 70 22 131 -68 83z m73 -26 c0
-8 -11 -24 -24 -36 l-24 -23 -7 23 c-7 21 -9 21 -20 6 -11 -16 -25 -13 -25 5
0 11 58 37 83 38 9 0 17 -6 17 -13z"/>
<path d="M319 424 c-28 -29 -18 -93 15 -96 51 -4 61 -4 66 2 3 3 14 10 25 16
11 6 24 26 29 44 8 27 7 35 -10 47 -29 21 -100 14 -125 -13z m101 -23 c0 -43
-59 -68 -79 -34 -16 29 5 53 44 53 28 0 35 -4 35 -19z"/>
<path d="M611 385 c3 -53 17 -72 17 -22 0 17 2 38 4 46 1 7 -3 16 -10 18 -10
4 -12 -7 -11 -42z"/>
</g>
</svg>
