<?xml version="1.0" encoding="UTF-8"?>
<svg width="51.027mm" height="49.137mm" version="1.1" viewBox="0 0 51.027 49.137" xmlns="http://www.w3.org/2000/svg" xmlns:cc="http://creativecommons.org/ns#" xmlns:dc="http://purl.org/dc/elements/1.1/" xmlns:rdf="http://www.w3.org/1999/02/22-rdf-syntax-ns#">
 <metadata>
  <rdf:RDF>
   <cc:Work rdf:about="">
    <dc:format>image/svg+xml</dc:format>
    <dc:type rdf:resource="http://purl.org/dc/dcmitype/StillImage"/>
    <dc:title/>
   </cc:Work>
  </rdf:RDF>
 </metadata>
 <g transform="translate(-54.654 -21.843)">
  <g>
   <rect x="54.654" y="21.843" width="51.027" height="49.137" ry="11.2" opacity=".999"/>
   <g fill="#fff">
    <rect transform="scale(-1)" x="-96.125" y="-61.161" width="3.8743" height="31.986" opacity=".999"/>
    <rect transform="rotate(90)" x="57.287" y="-96.125" width="3.8743" height="31.852" opacity=".999"/>
    <path d="m72.129 56.094 16.234-6.5058v18.653l-16.234-6.1418z" opacity=".999"/>
    <g transform="matrix(.58746 0 0 .58746 68.392 9.3527)">
     <circle cx="20.179" cy="37.551" r="11.626" opacity=".999"/>
     <path d="m24.345 37.267 9.6089 20.08h-27.55l9.0714-20.08z" opacity=".999"/>
    </g>
    <rect transform="scale(-1)" x="-67.977" y="-61.161" width="3.8743" height="25.972" opacity=".999"/>
    <rect transform="rotate(90)" x="28.895" y="-96.125" width="3.8743" height="15.816" opacity=".999"/>
    <rect transform="rotate(90)" x="32.803" y="-79.919" width="3.8743" height="15.816" opacity=".999"/>
    <rect x="62.177" y="39.073" width="7.9375" height="15.261" opacity=".999"/>
    <rect x="90.219" y="39.073" width="7.9375" height="15.261" opacity=".999"/>
   </g>
  </g>
 </g>
</svg>
